HIERARCHY
ROOT hip
{
  OFFSET 0 0 0
  CHANNELS 6 Xposition Yposition Zposition Zrotation Yrotation Xrotation
  JOINT abdomen
  {
    OFFSET 0 20.6881 -0.73152
    CHANNELS 3 Zrotation Xrotation Yrotation
    JOINT chest
    {
      OFFSET 0 11.7043 -0.48768
      CHANNELS 3 Zrotation Xrotation Yrotation
      JOINT neck
      {
        OFFSET 0 22.1894 -2.19456
        CHANNELS 3 Zrotation Xrotation Yrotation
        JOINT head
        {
          OFFSET -0.24384 7.07133 1.2192
          CHANNELS 3 Zrotation Xrotation Yrotation
          JOINT leftEye
          {
            OFFSET 4.14528 8.04674 8.04672
            CHANNELS 3 Zrotation Xrotation Yrotation
            End Site
            {
              OFFSET 1 0 0
            }
          }
          JOINT rightEye
          {
            OFFSET -3.6576 8.04674 8.04672
            CHANNELS 3 Zrotation Xrotation Yrotation
            End Site
            {
              OFFSET 1 0 0
            }
          }
        }
      }
      JOINT rCollar
      {
        OFFSET -2.68224 19.2634 -4.8768
        CHANNELS 3 Zrotation Xrotation Yrotation
        JOINT rShldr
        {
          OFFSET -8.77824 -1.95073 1.46304
          CHANNELS 3 Zrotation Xrotation Yrotation
          JOINT rForeArm
          {
            OFFSET -28.1742 -1.7115 0.48768
            CHANNELS 3 Zrotation Xrotation Yrotation
            JOINT rHand
            {
              OFFSET -22.5879 0.773209 7.07136
              CHANNELS 3 Zrotation Xrotation Yrotation
              JOINT rThumb1
              {
                OFFSET -1.2192 -0.487915 3.41376
                CHANNELS 3 Zrotation Xrotation Yrotation
                JOINT rThumb2
                {
                  OFFSET -3.37035 -0.52449 3.41376
                  CHANNELS 3 Zrotation Xrotation Yrotation
                  End Site
                  {
                    OFFSET -1.78271 -1.18214 1.43049
                  }
                }
              }
              JOINT rIndex1
              {
                OFFSET -7.75947 0.938293 5.60832
                CHANNELS 3 Zrotation Xrotation Yrotation
                JOINT rIndex2
                {
                  OFFSET -2.54057 -0.884171 1.56538
                  CHANNELS 3 Zrotation Xrotation Yrotation
                  End Site
                  {
                    OFFSET -1.62519 -0.234802 1.16502
                  }
                }
              }
              JOINT rMid1
              {
                OFFSET -8.24714 1.18213 3.41376
                CHANNELS 3 Zrotation Xrotation Yrotation
                JOINT rMid2
                {
                  OFFSET -3.10165 -0.590103 1.0647
                  CHANNELS 3 Zrotation Xrotation Yrotation
                  End Site
                  {
                    OFFSET -2.48547 -0.328903 0.83742
                  }
                }
              }
              JOINT rRing1
              {
                OFFSET -8.82822 0.546677 1.51678
                CHANNELS 3 Zrotation Xrotation Yrotation
                JOINT rRing2
                {
                  OFFSET -2.60934 -0.819778 -0.0198488
                  CHANNELS 3 Zrotation Xrotation Yrotation
                  End Site
                  {
                    OFFSET -2.33842 -0.294052 0.168128
                  }
                }
              }
              JOINT rPinky1
              {
                OFFSET -8.27202 -0.0477905 -0.4584
                CHANNELS 3 Zrotation Xrotation Yrotation
                JOINT rPinky2
                {
                  OFFSET -1.82734 -0.647385 -0.700984
                  CHANNELS 3 Zrotation Xrotation Yrotation
                  End Site
                  {
                    OFFSET -1.69225 -0.51767 -0.607171
                  }
                }
              }
            }
          }
        }
      }
      JOINT lCollar
      {
        OFFSET 2.68224 19.2634 -4.8768
        CHANNELS 3 Zrotation Xrotation Yrotation
        JOINT lShldr
        {
          OFFSET 8.77824 -1.95073 1.46304
          CHANNELS 3 Zrotation Xrotation Yrotation
          JOINT lForeArm
          {
            OFFSET 28.1742 -1.7115 0.48768
            CHANNELS 3 Zrotation Xrotation Yrotation
            JOINT lHand
            {
              OFFSET 22.5879 0.773209 7.07136
              CHANNELS 3 Zrotation Xrotation Yrotation
              JOINT lThumb1
              {
                OFFSET 1.2192 -0.487915 3.41376
                CHANNELS 3 Zrotation Xrotation Yrotation
                JOINT lThumb2
                {
                  OFFSET 3.37035 -0.52449 3.41376
                  CHANNELS 3 Zrotation Xrotation Yrotation
                  End Site
                  {
                    OFFSET 1.78271 -1.18214 1.43049
                  }
                }
              }
              JOINT lIndex1
              {
                OFFSET 7.75947 0.938293 5.60832
                CHANNELS 3 Zrotation Xrotation Yrotation
                JOINT lIndex2
                {
                  OFFSET 2.54057 -0.884171 1.56538
                  CHANNELS 3 Zrotation Xrotation Yrotation
                  End Site
                  {
                    OFFSET 1.62519 -0.234802 1.16502
                  }
                }
              }
              JOINT lMid1
              {
                OFFSET 8.24714 1.18213 3.41376
                CHANNELS 3 Zrotation Xrotation Yrotation
                JOINT lMid2
                {
                  OFFSET 3.10165 -0.590103 1.0647
                  CHANNELS 3 Zrotation Xrotation Yrotation
                  End Site
                  {
                    OFFSET 2.48547 -0.328903 0.83742
                  }
                }
              }
              JOINT lRing1
              {
                OFFSET 8.82822 0.546677 1.51678
                CHANNELS 3 Zrotation Xrotation Yrotation
                JOINT lRing2
                {
                  OFFSET 2.60934 -0.819778 -0.0198488
                  CHANNELS 3 Zrotation Xrotation Yrotation
                  End Site
                  {
                    OFFSET 2.33842 -0.294052 0.168128
                  }
                }
              }
              JOINT lPinky1
              {
                OFFSET 8.27202 -0.0477905 -0.4584
                CHANNELS 3 Zrotation Xrotation Yrotation
                JOINT lPinky2
                {
                  OFFSET 1.82734 -0.647385 -0.700984
                  CHANNELS 3 Zrotation Xrotation Yrotation
                  End Site
                  {
                    OFFSET 1.69225 -0.51767 -0.607171
                  }
                }
              }
            }
          }
        }
      }
    }
  }
  JOINT rButtock
  {
    OFFSET -8.77824 4.35084 1.2192
    CHANNELS 3 Zrotation Xrotation Yrotation
    JOINT rThigh
    {
      OFFSET 0 -1.70687 -2.19456
      CHANNELS 3 Zrotation Xrotation Yrotation
      JOINT rShin
      {
        OFFSET 0 -36.8199 0.73152
        CHANNELS 3 Zrotation Xrotation Yrotation
        JOINT rFoot
        {
          OFFSET 0.73152 -45.1104 -5.12064
          CHANNELS 3 Zrotation Xrotation Yrotation
          End Site
          {
            OFFSET -1.1221 -3.69964 12.103
          }
        }
      }
    }
  }
  JOINT lButtock
  {
    OFFSET 8.77824 4.35084 1.2192
    CHANNELS 3 Zrotation Xrotation Yrotation
    JOINT lThigh
    {
      OFFSET 0 -1.70687 -2.19456
      CHANNELS 3 Zrotation Xrotation Yrotation
      JOINT lShin
      {
        OFFSET 0 -36.8199 0.73152
        CHANNELS 3 Zrotation Xrotation Yrotation
        JOINT lFoot
        {
          OFFSET -0.73152 -45.1104 -5.12064
          CHANNELS 3 Zrotation Xrotation Yrotation
          End Site
          {
            OFFSET 1.1221 -3.69964 12.103
          }
        }
      }
    }
  }
}
MOTION
Frames:	4
Frame Time:	0.00833333
-208.174 82.09 95.9916 0.0 0.0 0.0 -3.13123 0.0020855 -0.0845037 -0.863235 0.0181967 -0.149332 2.41375e-14 -1.59028e-15 2.98177e-16 7.08605e-14 3.18055e-15 9.90817e-16 -0.0 0.0 0.0 -0.0 0.0 0.0 1.20755e-14 3.8631e-17 3.97569e-16 2.52889e-13 6.7711e-16 4.57205e-15 4.31263e-12 -1.27043e-12 2.54444e-14 4.94429e-11 1.44251e-12 7.09264e-13 1.166e-10 3.75486e-13 1.62208e-12 2.01354e-10 6.48833e-13 2.79253e-12 1.16606e-10 3.77293e-13 1.61254e-12 7.73091 5.47488 0.417314 1.166e-10 3.75206e-13 1.6189e-12 2.90554 0.965183 0.102902 1.16607e-10 3.75802e-13 1.62049e-12 10.2786 0.731801 0.0259123 1.16594e-10 3.76101e-13 1.63481e-12 2.22167 -0.733487 -0.20892 1.19783e-14 3.61074e-17 0.0 2.49785e-13 4.53478e-16 3.37934e-15 4.32486e-12 1.31635e-12 1.27222e-14 4.93972e-11 -1.15439e-12 7.50611e-13 1.16545e-10 3.51415e-13 1.63162e-12 2.01278e-10 6.10667e-13 2.80048e-12 1.16539e-10 3.55029e-13 1.64117e-12 -7.73091 5.47488 -0.417314 1.16545e-10 3.51749e-13 1.62844e-12 -2.90554 0.965183 -0.102902 1.1654e-10 3.52048e-13 1.62288e-12 -10.2786 0.731801 -0.0259123 1.16548e-10 3.52644e-13 1.6189e-12 -2.22167 -0.733487 0.20892 -2.03217e-16 0.0 -3.88251e-19 -1.9184 -1.93503 0.0146182 -0.00850346 -2.07867 -0.0697862 -0.459067 4.0001 0.132518 2.03217e-16 0.0 3.88251e-19 -2.83783 -9.3263 0.322325 -0.0090274 11.308 -0.235103 0.526936 -1.99513 -0.0183202
-202.285 79.8475 89.0817 -142.206 80.1737 -134.184 -4.61076 6.56018 -0.960455 2.91405 -0.346114 -0.340596 -2.82227 1.55644 1.09051 3.86459 -13.8391 4.89325 -0.0 0.0 0.0 -0.0 0.0 0.0 -5.03004e-14 1.40158e-12 -3.99627e-15 22.9356 8.595 3.9893 -20.9775 -18.7901 15.1274 0.0321044 -4.01221 -0.559034 5.1755e-11 -2.4798e-10 -5.98094e-10 9.44082e-11 -4.28703e-10 -1.03276e-09 5.17624e-11 -2.47978e-10 -5.98102e-10 7.73091 5.47488 0.417314 5.17544e-11 -2.47981e-10 -5.98088e-10 2.90554 0.965183 0.102902 5.17628e-11 -2.4798e-10 -5.98095e-10 10.2786 0.731801 0.0259123 5.17505e-11 -2.4798e-10 -5.98083e-10 2.22167 -0.733487 -0.20892 -5.03826e-14 1.40157e-12 -4.32706e-15 -17.0603 14.4998 1.21758 18.3473 -15.951 -15.1408 -0.100073 -7.0379 0.962509 4.56829e-10 3.16908e-11 3.00812e-10 7.81815e-10 5.0878e-11 5.27157e-10 4.56821e-10 3.16905e-11 3.00824e-10 -7.73091 5.47488 -0.417314 4.56827e-10 3.16894e-11 3.0081e-10 -2.90554 0.965183 -0.102902 4.56821e-10 3.16885e-11 3.00807e-10 -10.2786 0.731801 -0.0259123 4.56832e-10 3.16905e-11 3.00803e-10 -2.22167 -0.733487 0.20892 -2.03217e-16 0.0 -3.88251e-19 -1.94236 -17.0175 0.857849 0.0318852 12.246 0.144263 -0.250264 0.945824 1.42565 2.03217e-16 0.0 3.88251e-19 -6.87718 -4.54359 1.22377 -0.0498153 19.5836 -0.455492 0.557568 5.99436 2.06579
-199.366 79.7979 87.9535 -143.543 80.3423 -135.161 -6.02091 13.4738 -1.9316 6.936 -0.737819 -0.54802 -5.88416 3.19499 2.23151 10.841 -28.1248 11.0833 -0.0 0.0 0.0 -0.0 0.0 0.0 -1.22366e-13 3.02485e-12 -1.03337e-14 45.8364 17.5152 8.5059 -31.0066 -33.958 36.3297 -0.0205784 -8.31445 -1.16799 -2.14558e-11 -5.40407e-10 -1.26416e-09 -2.64539e-11 -9.34225e-10 -2.18289e-09 -2.14474e-11 -5.40406e-10 -1.26416e-09 7.73091 5.47488 0.417314 -2.14578e-11 -5.40409e-10 -1.26414e-09 2.90554 0.965183 0.102902 -2.14479e-11 -5.40409e-10 -1.26416e-09 10.2786 0.731801 0.0259123 -2.14586e-11 -5.40409e-10 -1.26415e-09 2.22167 -0.733487 -0.20892 -1.22433e-13 3.02485e-12 -1.05946e-14 -35.6528 29.7741 2.65352 28.0326 -29.0936 -34.8312 0.0594718 -14.5172 2.03602 8.47122e-10 6.87478e-11 6.31861e-10 1.44796e-09 1.10496e-10 1.1076e-09 8.47113e-10 6.87432e-11 6.31877e-10 -7.73091 5.47488 -0.417314 8.47119e-10 6.87445e-11 6.31861e-10 -2.90554 0.965183 -0.102902 8.4711e-10 6.87423e-11 6.3186e-10 -10.2786 0.731801 -0.0259123 8.47126e-10 6.87459e-11 6.31855e-10 -2.22167 -0.733487 0.20892 -2.03217e-16 0.0 -3.88251e-19 -1.41609 -33.0495 2.0443 -0.05052 27.3861 0.413071 0.113657 -2.28865 2.75894 2.03217e-16 0.0 3.88251e-19 -11.386 0.625415 2.07442 -0.0176419 28.0319 -0.724701 -0.0717523 14.4954 4.36434
-195.821 79.7055 86.6655 -140.655 81.0876 -133.223 -6.93617 19.6565 -2.8603 10.4613 -1.07467 -0.723233 -8.64496 4.66254 3.2812 20.431 -40.1125 18.7791 -0.0 0.0 0.0 -0.0 0.0 0.0 -1.75052e-13 4.20465e-12 -1.2784e-14 64.9252 25.2583 13.1054 -30.135 -38.5193 60.4836 -0.143023 -12.032 -1.71058 -7.79345e-11 -7.44691e-10 -1.79753e-09 -1.19484e-10 -1.28741e-09 -3.10387e-09 -7.79253e-11 -7.44689e-10 -1.79753e-09 7.73091 5.47488 0.417314 -7.79375e-11 -7.44693e-10 -1.7975e-09 2.90554 0.965183 0.102902 -7.79265e-11 -7.44693e-10 -1.79753e-09 10.2786 0.731801 0.0259123 -7.79357e-11 -7.44693e-10 -1.79752e-09 2.22167 -0.733487 -0.20892 -1.75105e-13 4.20464e-12 -1.29812e-14 -53.6172 43.4053 4.87038 28.8819 -33.3809 -55.7284 0.452118 -21.089 3.07168 1.1374e-09 9.43694e-11 8.99172e-10 1.94289e-09 1.51413e-10 1.57587e-09 1.13739e-09 9.43614e-11 8.9919e-10 -7.73091 5.47488 -0.417314 1.13739e-09 9.43646e-11 8.99174e-10 -2.90554 0.965183 -0.102902 1.13738e-09 9.43614e-11 8.99174e-10 -10.2786 0.731801 -0.0259123 1.1374e-09 9.43662e-11 8.9917e-10 -2.22167 -0.733487 0.20892 -2.03217e-16 0.0 -3.88251e-19 -0.120311 -47.1323 3.57557 -0.287687 40.8929 0.744018 0.581594 -5.1492 4.02827 2.03217e-16 0.0 3.88251e-19 -15.4077 5.01204 3.03527 0.106129 36.1321 -1.02316 -1.23161 21.8497 6.68208
